<svg width="1440" height="250" viewBox="0 0 1440 250" fill="none" xmlns="http://www.w3.org/2000/svg">
<path fill-rule="evenodd" clip-rule="evenodd" d="M1305.16 250H1440V0H836.494C848.563 50.6092 879.395 89.2942 944.732 117C996.385 138.903 1047.04 136.863 1097.32 134.838C1135.01 133.32 1172.48 131.811 1210.01 140.4C1259.43 151.711 1280.96 197.748 1305.16 250ZM808.603 250H179.519C200.14 241.633 221.468 233.217 243.5 224.76C608.257 84.743 720.162 150.307 799.392 238.798C802.579 242.358 805.65 246.096 808.603 250ZM0 10.4948V0H521.222C496.74 28.8297 467.505 54.0633 433.906 73.221C292.491 153.852 118.572 134.547 36.086 55.071C21.9084 41.4109 10.1676 26.2834 0 10.4948Z" fill="#6B21A8"/>
</svg>
