<svg width="371" height="175" viewBox="0 0 371 175" fill="none" xmlns="http://www.w3.org/2000/svg">
<path fill-rule="evenodd" clip-rule="evenodd" d="M329.151 175H371V0L228.676 0C231.874 8.17296 235.818 15.4395 240.649 21.8261C251.633 36.3482 262.406 34.9956 273.098 33.6531C281.113 32.6468 289.082 31.6461 297.063 37.3407C307.624 44.8766 312.197 75.6649 317.374 110.52C320.56 131.963 323.973 154.945 329.151 175ZM191.979 175H0V48.3097C20.5817 36.7709 48.0987 30.2084 82.2217 30.2084C165.31 30.2084 182.53 97.3802 191.516 170.98C191.678 172.304 191.832 173.644 191.979 175Z" fill="#6B21A8"/>
</svg>
