<svg width="1152" height="200" viewBox="0 0 1152 200" fill="none" xmlns="http://www.w3.org/2000/svg">
<path fill-rule="evenodd" clip-rule="evenodd" d="M1022.05 200H1152V0L710.068 0C719.997 9.34051 732.243 17.6452 747.243 24.9441C781.352 41.5408 814.802 39.995 848.003 38.4607C872.889 37.3106 897.636 36.167 922.416 42.675C955.209 51.2875 969.41 86.4741 985.486 126.309C995.376 150.815 1005.98 177.081 1022.05 200ZM596.118 200H0L0 55.2111C63.9086 42.0238 149.352 34.5238 255.308 34.5238C513.307 34.5238 566.779 111.292 594.681 195.406C595.183 196.919 595.662 198.45 596.118 200Z" fill="#6B21A8"/>
</svg>
